<svg width="260" height="170" viewBox="0 0 260 170" fill="none" xmlns="http://www.w3.org/2000/svg">
<g opacity="0.6">
<g opacity="0.1">
<rect width="37.5442" height="21.8739" rx="10.937" transform="matrix(-0.720068 -0.693903 0.7198 -0.694182 40.9744 82.4839)" fill="#5D3BEE"/>
<rect width="99.2325" height="21.8739" rx="10.937" transform="matrix(-0.720068 -0.693903 0.7198 -0.694182 120.553 157.627)" fill="#5D3BEE"/>
<rect width="249.638" height="21.8739" rx="10.937" transform="matrix(-0.720068 -0.693903 0.7198 -0.694182 199.948 183.187)" fill="#5D3BEE"/>
<rect width="93.083" height="21.8739" rx="10.937" transform="matrix(-0.720068 -0.693904 0.719799 -0.694182 141.479 78.7883)" fill="#5D3BEE"/>
</g>
<g opacity="0.1">
<rect width="99.2325" height="21.8739" rx="10.937" transform="matrix(-0.720068 -0.693903 0.7198 -0.694182 217.193 147.02)" fill="#5D3BEE"/>
<rect width="249.638" height="21.8739" rx="10.937" transform="matrix(-0.720068 -0.693903 0.7198 -0.694182 296.588 172.581)" fill="#5D3BEE"/>
<rect width="93.083" height="21.8739" rx="10.937" transform="matrix(-0.720068 -0.693903 0.7198 -0.694182 238.119 68.1816)" fill="#5D3BEE"/>
</g>
</g>
</svg>
