<svg width="16" height="10" viewBox="0 0 16 10" fill="none" xmlns="http://www.w3.org/2000/svg">
<path d="M10.4465 0.661486H14.439V1.62582H10.4465V0.661486ZM6.44603 4.47699C7.32858 4.05658 7.79087 3.41702 7.79087 2.42877C7.79087 0.474198 6.32996 0 4.6429 0H0V9.81072H4.77298C6.5621 9.81072 8.24115 8.95397 8.24115 6.96155C8.24115 5.73023 7.65679 4.81968 6.44603 4.47699ZM2.16535 1.67364H4.19662C4.97911 1.67364 5.68155 1.89081 5.68155 2.79538C5.68155 3.62821 5.13521 3.96294 4.36073 3.96294H2.16535V1.67364ZM4.4768 8.14505H2.16335V5.44332H4.52283C5.47542 5.44332 6.0778 5.83981 6.0778 6.84399C6.0778 7.83224 5.35935 8.14505 4.4768 8.14505ZM16 6.36183C16 4.25981 14.7652 2.50847 12.5318 2.50847C10.3605 2.50847 8.88355 4.13628 8.88355 6.27017C8.88355 8.48177 10.2824 10 12.5318 10C14.2349 10 15.3376 9.2369 15.8679 7.60909H14.1408C13.9527 8.21678 13.1882 8.53557 12.5939 8.53557C11.4452 8.53557 10.8448 7.86611 10.8448 6.72843H15.986C15.992 6.61088 16 6.48735 16 6.36183ZM10.8448 5.49711C10.9068 4.56266 11.5332 3.97888 12.4698 3.97888C13.4544 3.97888 13.9467 4.55469 14.0328 5.49711H10.8448Z" fill="#080415"/>
</svg>
