<svg width="16" height="16" viewBox="0 0 16 16" fill="none" xmlns="http://www.w3.org/2000/svg">
<path d="M14.7355 4.09587C14.0402 2.90353 13.0967 1.95931 11.9036 1.26476C10.7113 0.570201 9.41006 0.222534 7.99995 0.222534C6.58984 0.222534 5.28861 0.570201 4.0955 1.26476C2.90317 1.95931 1.95895 2.90353 1.26439 4.09587C0.569835 5.2882 0.222168 6.5902 0.222168 8.00031C0.222168 9.41042 0.569057 10.7124 1.26439 11.9048C1.95972 13.0979 2.90317 14.0413 4.09628 14.7359C5.28861 15.4304 6.58984 15.7781 7.99995 15.7781C9.41006 15.7781 10.7113 15.4304 11.9044 14.7359C13.0967 14.0413 14.0409 13.0979 14.7363 11.9048C15.4308 10.7124 15.7777 9.41042 15.7777 8.00031C15.7777 6.5902 15.4308 5.2882 14.7355 4.09587ZM7.99995 1.51365C9.5555 1.51365 10.9337 2.01142 12.1377 3.0062C11.4222 3.91931 10.3597 4.67065 8.94884 5.26176C8.1695 3.85165 7.32483 2.67409 6.4125 1.73065C6.94295 1.58598 7.47028 1.51365 7.99995 1.51365ZM2.95217 3.95587C3.53861 3.21931 4.24017 2.64453 5.06072 2.2292C6.00339 3.16331 6.86906 4.3292 7.6585 5.7292C6.10295 6.19587 4.45872 6.4292 2.72661 6.4292C2.28095 6.4292 1.94417 6.41909 1.7155 6.39809C1.95428 5.50598 2.3665 4.69242 2.95217 3.95587ZM1.51328 8.00031C1.51328 7.95831 1.51561 7.90698 1.52106 7.84476C1.5265 7.78254 1.52883 7.7312 1.52883 7.6892C1.72639 7.70009 2.02739 7.70476 2.43183 7.70476C4.50539 7.70476 6.43428 7.41931 8.21772 6.8492C8.36317 7.13931 8.51406 7.46598 8.66883 7.8292C7.64217 8.05709 6.58906 8.61165 5.51028 9.49365C4.4315 10.3756 3.64439 11.3035 3.14661 12.2781C2.05772 11.0438 1.51328 9.61809 1.51328 8.00031ZM7.99995 14.487C6.52683 14.487 5.20461 14.0304 4.0325 13.1189C4.49995 12.1956 5.21783 11.3129 6.18772 10.4736C7.15684 9.63365 8.11895 9.1102 9.07328 8.90253C9.67372 10.5615 10.0789 12.2773 10.2866 14.0514C9.52906 14.3415 8.76684 14.487 7.99995 14.487ZM13.5066 11.407C12.9886 12.2361 12.3197 12.9159 11.4999 13.4455C11.3133 11.8278 10.9555 10.2512 10.4274 8.71587C11.1523 8.66453 11.8002 8.63809 12.3718 8.63809C12.9933 8.63809 13.6832 8.66453 14.4399 8.71587C14.3357 9.68031 14.0246 10.5771 13.5066 11.407ZM12.5422 7.51809C11.6399 7.51809 10.8054 7.55465 10.0377 7.62698C9.84017 7.11909 9.66439 6.69909 9.50883 6.36698C11.1157 5.66231 12.2559 4.80676 12.9303 3.80031C13.8636 4.90009 14.3723 6.15465 14.4547 7.56476C13.8232 7.53365 13.1854 7.51809 12.5422 7.51809Z" fill="#080415"/>
</svg>
